<svg width="70" height="37" viewBox="0 0 70 37" fill="none" xmlns="http://www.w3.org/2000/svg">
<path d="M31.0536 12V2.298H37.6056V4.132H33.2376V6.036H37.1156V7.828H33.2376V10.166H37.9276V12H31.0536ZM41.7278 10.222C41.8305 10.2313 41.9472 10.2407 42.0778 10.25C42.2178 10.25 42.3812 10.25 42.5678 10.25C43.6598 10.25 44.4672 9.97467 44.9898 9.424C45.5218 8.87333 45.7878 8.11267 45.7878 7.142C45.7878 6.12467 45.5358 5.35467 45.0318 4.832C44.5278 4.30933 43.7298 4.048 42.6378 4.048C42.4885 4.048 42.3345 4.05267 42.1758 4.062C42.0172 4.062 41.8678 4.07133 41.7278 4.09V10.222ZM48.0418 7.142C48.0418 7.982 47.9112 8.71467 47.6498 9.34C47.3885 9.96533 47.0152 10.4833 46.5298 10.894C46.0538 11.3047 45.4705 11.6127 44.7798 11.818C44.0892 12.0233 43.3145 12.126 42.4558 12.126C42.0638 12.126 41.6065 12.1073 41.0838 12.07C40.5612 12.042 40.0478 11.9767 39.5438 11.874V2.424C40.0478 2.33067 40.5705 2.27 41.1118 2.242C41.6625 2.20467 42.1338 2.186 42.5258 2.186C43.3565 2.186 44.1078 2.27933 44.7798 2.466C45.4612 2.65267 46.0445 2.94667 46.5298 3.348C47.0152 3.74933 47.3885 4.26267 47.6498 4.888C47.9112 5.51333 48.0418 6.26467 48.0418 7.142ZM54.5981 3.978C53.5808 3.978 52.8434 4.26267 52.3861 4.832C51.9381 5.392 51.7141 6.162 51.7141 7.142C51.7141 7.618 51.7701 8.052 51.8821 8.444C51.9941 8.82667 52.1621 9.158 52.3861 9.438C52.6101 9.718 52.8901 9.93733 53.2261 10.096C53.5621 10.2453 53.9541 10.32 54.4021 10.32C54.6448 10.32 54.8501 10.3153 55.0181 10.306C55.1954 10.2967 55.3494 10.278 55.4801 10.25V6.876H57.6641V11.678C57.4028 11.7807 56.9828 11.888 56.4041 12C55.8254 12.1213 55.1114 12.182 54.2621 12.182C53.5341 12.182 52.8714 12.07 52.2741 11.846C51.6861 11.622 51.1821 11.2953 50.7621 10.866C50.3421 10.4367 50.0154 9.90933 49.7821 9.284C49.5581 8.65867 49.4461 7.94467 49.4461 7.142C49.4461 6.33 49.5721 5.61133 49.8241 4.986C50.0761 4.36067 50.4214 3.83333 50.8601 3.404C51.2988 2.96533 51.8121 2.634 52.4001 2.41C52.9974 2.186 53.6321 2.074 54.3041 2.074C54.7614 2.074 55.1721 2.10667 55.5361 2.172C55.9094 2.228 56.2268 2.298 56.4881 2.382C56.7588 2.45667 56.9781 2.536 57.1461 2.62C57.3234 2.704 57.4494 2.76933 57.5241 2.816L56.8941 4.566C56.5954 4.40733 56.2501 4.272 55.8581 4.16C55.4754 4.03867 55.0554 3.978 54.5981 3.978ZM59.6962 12V2.298H66.2482V4.132H61.8802V6.036H65.7582V7.828H61.8802V10.166H66.5702V12H59.6962ZM42.8465 18.836C42.8465 19.244 42.8945 19.612 42.9905 19.94C43.0945 20.268 43.2385 20.552 43.4225 20.792C43.6145 21.024 43.8465 21.204 44.1185 21.332C44.3905 21.46 44.7025 21.524 45.0545 21.524C45.3985 21.524 45.7065 21.46 45.9785 21.332C46.2585 21.204 46.4905 21.024 46.6745 20.792C46.8665 20.552 47.0105 20.268 47.1065 19.94C47.2105 19.612 47.2625 19.244 47.2625 18.836C47.2625 18.428 47.2105 18.06 47.1065 17.732C47.0105 17.396 46.8665 17.112 46.6745 16.88C46.4905 16.64 46.2585 16.456 45.9785 16.328C45.7065 16.2 45.3985 16.136 45.0545 16.136C44.7025 16.136 44.3905 16.204 44.1185 16.34C43.8465 16.468 43.6145 16.652 43.4225 16.892C43.2385 17.124 43.0945 17.408 42.9905 17.744C42.8945 18.072 42.8465 18.436 42.8465 18.836ZM49.1945 18.836C49.1945 19.548 49.0865 20.176 48.8705 20.72C48.6625 21.256 48.3745 21.708 48.0065 22.076C47.6385 22.436 47.1985 22.708 46.6865 22.892C46.1825 23.076 45.6385 23.168 45.0545 23.168C44.4865 23.168 43.9505 23.076 43.4465 22.892C42.9425 22.708 42.5025 22.436 42.1265 22.076C41.7505 21.708 41.4545 21.256 41.2385 20.72C41.0225 20.176 40.9145 19.548 40.9145 18.836C40.9145 18.124 41.0265 17.5 41.2505 16.964C41.4745 16.42 41.7745 15.964 42.1505 15.596C42.5345 15.228 42.9745 14.952 43.4705 14.768C43.9745 14.584 44.5025 14.492 45.0545 14.492C45.6225 14.492 46.1585 14.584 46.6625 14.768C47.1665 14.952 47.6065 15.228 47.9825 15.596C48.3585 15.964 48.6545 16.42 48.8705 16.964C49.0865 17.5 49.1945 18.124 49.1945 18.836ZM50.7549 23V14.684H56.3229V16.256H52.6269V17.996H55.9149V19.568H52.6269V23H50.7549ZM30.9721 34.334C31.2801 34.334 31.5321 34.3107 31.7281 34.264C31.9334 34.208 32.0967 34.138 32.2181 34.054C32.3394 33.9607 32.4234 33.8533 32.4701 33.732C32.5167 33.6107 32.5401 33.4753 32.5401 33.326C32.5401 33.0087 32.3907 32.7473 32.0921 32.542C31.7934 32.3273 31.2801 32.0987 30.5521 31.856C30.2347 31.744 29.9174 31.618 29.6001 31.478C29.2827 31.3287 28.9981 31.1467 28.7461 30.932C28.4941 30.708 28.2887 30.442 28.1301 30.134C27.9714 29.8167 27.8921 29.434 27.8921 28.986C27.8921 28.538 27.9761 28.1367 28.1441 27.782C28.3121 27.418 28.5501 27.11 28.8581 26.858C29.1661 26.606 29.5394 26.4147 29.9781 26.284C30.4167 26.144 30.9114 26.074 31.4621 26.074C32.1154 26.074 32.6801 26.144 33.1561 26.284C33.6321 26.424 34.0241 26.578 34.3321 26.746L33.7021 28.468C33.4314 28.328 33.1281 28.2067 32.7921 28.104C32.4654 27.992 32.0687 27.936 31.6021 27.936C31.0794 27.936 30.7014 28.0107 30.4681 28.16C30.2441 28.3 30.1321 28.5193 30.1321 28.818C30.1321 28.9953 30.1741 29.1447 30.2581 29.266C30.3421 29.3873 30.4587 29.4993 30.6081 29.602C30.7667 29.6953 30.9441 29.784 31.1401 29.868C31.3454 29.9427 31.5694 30.022 31.8121 30.106C32.3161 30.2927 32.7547 30.4793 33.1281 30.666C33.5014 30.8433 33.8094 31.0533 34.0521 31.296C34.3041 31.5387 34.4907 31.8233 34.6121 32.15C34.7334 32.4767 34.7941 32.8733 34.7941 33.34C34.7941 34.2453 34.4767 34.95 33.8421 35.454C33.2074 35.9487 32.2507 36.196 30.9721 36.196C30.5427 36.196 30.1554 36.168 29.8101 36.112C29.4647 36.0653 29.1567 36.0047 28.8861 35.93C28.6247 35.8553 28.3961 35.776 28.2001 35.692C28.0134 35.608 27.8547 35.5287 27.7241 35.454L28.3401 33.718C28.6294 33.8767 28.9841 34.0213 29.4041 34.152C29.8334 34.2733 30.3561 34.334 30.9721 34.334ZM43.3971 26.298V28.16H40.4711V36H38.2871V28.16H35.3611V26.298H43.3971ZM48.8352 30.288C49.2272 29.6253 49.6005 28.9627 49.9552 28.3C50.3098 27.6373 50.6365 26.97 50.9352 26.298H53.3432C52.8112 27.3433 52.2605 28.356 51.6912 29.336C51.1218 30.316 50.5198 31.3007 49.8852 32.29V36H47.7012V32.318C47.0665 31.3287 46.4598 30.3393 45.8812 29.35C45.3118 28.3607 44.7612 27.3433 44.2292 26.298H46.7632C47.0618 26.97 47.3838 27.6373 47.7292 28.3C48.0745 28.9627 48.4432 29.6253 48.8352 30.288ZM61.017 34.124V36H54.535V26.298H56.719V34.124H61.017ZM62.4237 36V26.298H68.9757V28.132H64.6077V30.036H68.4857V31.828H64.6077V34.166H69.2977V36H62.4237Z" fill="white"/>
<path d="M16 4C8.832 4 3 9.832 3 17C3 24.168 8.832 30 16 30C23.168 30 29 24.168 29 17C29 9.832 23.168 4 16 4ZM16 6C22.065 6 27 10.935 27 17C27 23.065 22.065 28 16 28C9.935 28 5 23.065 5 17C5 10.935 9.935 6 16 6ZM15.5 9C15.212 9 14.9361 9.1258 14.7461 9.3418L8.04688 17H10.7031L15.4727 11.5508L19.8984 17H15C14.609 17 14.2548 17.228 14.0918 17.582C13.9288 17.937 13.9862 18.3534 14.2402 18.6504L18.8262 24H21.4609L17.1738 19H22C22.386 19 22.7363 18.7777 22.9023 18.4297C23.0673 18.0817 23.0184 17.6681 22.7754 17.3691L16.2754 9.36914C16.0894 9.14014 15.8125 9.005 15.5195 9H15.5Z" fill="white"/>
</svg>
